<svg xmlns="http://www.w3.org/2000/svg" viewBox="0 0 64.1 64.1"><defs><style>.cls-1{fill:#0e4d76;}.cls-2{fill:none;}</style></defs><g id="Layer_2" data-name="Layer 2"><g id="Layer_1-2" data-name="Layer 1"><rect class="cls-1" x="20.51" width="2.56" height="2.56"/><rect class="cls-1" x="28.2" width="2.56" height="2.56"/><rect class="cls-1" x="30.77" width="2.56" height="2.56"/><rect class="cls-1" x="41.02" width="2.56" height="2.56"/><rect class="cls-1" x="20.51" y="2.56" width="2.56" height="2.56"/><rect class="cls-1" x="23.07" y="2.56" width="2.56" height="2.56"/><rect class="cls-1" x="25.64" y="2.56" width="2.56" height="2.56"/><rect class="cls-1" x="28.2" y="2.56" width="2.56" height="2.56"/><rect class="cls-1" x="30.77" y="2.56" width="2.56" height="2.56"/><rect class="cls-1" x="33.33" y="2.56" width="2.56" height="2.56"/><rect class="cls-1" x="35.89" y="2.56" width="2.56" height="2.56"/><rect class="cls-1" x="28.2" y="5.13" width="2.56" height="2.56"/><rect class="cls-1" x="33.33" y="5.13" width="2.56" height="2.56"/><rect class="cls-1" x="35.89" y="5.13" width="2.56" height="2.56"/><rect class="cls-1" x="38.46" y="5.13" width="2.56" height="2.56"/><rect class="cls-1" x="20.51" y="7.69" width="2.56" height="2.56"/><rect class="cls-1" x="25.64" y="7.69" width="2.56" height="2.56"/><rect class="cls-1" x="33.33" y="7.69" width="2.56" height="2.56"/><rect class="cls-1" x="35.89" y="7.69" width="2.56" height="2.56"/><rect class="cls-1" x="25.64" y="10.26" width="2.56" height="2.56"/><rect class="cls-1" x="33.33" y="10.26" width="2.56" height="2.56"/><rect class="cls-1" x="35.89" y="10.26" width="2.56" height="2.56"/><rect class="cls-1" x="38.46" y="10.26" width="2.56" height="2.56"/><rect class="cls-1" x="23.07" y="12.82" width="2.56" height="2.56"/><rect class="cls-1" x="25.64" y="12.82" width="2.56" height="2.56"/><rect class="cls-1" x="28.2" y="12.82" width="2.56" height="2.56"/><rect class="cls-1" x="35.89" y="12.82" width="2.56" height="2.56"/><rect class="cls-1" x="20.51" y="15.38" width="2.56" height="2.56"/><rect class="cls-1" x="25.64" y="15.38" width="2.56" height="2.56"/><rect class="cls-1" x="30.77" y="15.38" width="2.56" height="2.56"/><rect class="cls-1" x="35.89" y="15.38" width="2.56" height="2.56"/><rect class="cls-1" x="41.02" y="15.38" width="2.56" height="2.56"/><rect class="cls-1" x="20.51" y="17.95" width="2.56" height="2.56"/><rect class="cls-1" x="23.07" y="17.95" width="2.56" height="2.56"/><rect class="cls-1" x="25.64" y="17.95" width="2.56" height="2.56"/><rect class="cls-1" x="38.46" y="17.95" width="2.56" height="2.56"/><rect class="cls-1" y="20.51" width="2.56" height="2.56"/><rect class="cls-1" x="5.13" y="20.51" width="2.56" height="2.56"/><rect class="cls-1" x="7.69" y="20.51" width="2.56" height="2.56"/><rect class="cls-1" x="12.82" y="20.51" width="2.56" height="2.56"/><rect class="cls-1" x="15.38" y="20.51" width="2.56" height="2.56"/><rect class="cls-1" x="17.95" y="20.51" width="2.56" height="2.56"/><rect class="cls-1" x="23.07" y="20.51" width="2.56" height="2.56"/><rect class="cls-1" x="28.2" y="20.51" width="2.56" height="2.56"/><rect class="cls-1" x="30.77" y="20.51" width="2.56" height="2.56"/><rect class="cls-1" x="35.89" y="20.51" width="2.56" height="2.56"/><rect class="cls-1" x="46.15" y="20.51" width="2.56" height="2.56"/><rect class="cls-1" x="53.84" y="20.51" width="2.56" height="2.56"/><rect class="cls-1" x="58.97" y="20.51" width="2.56" height="2.56"/><rect class="cls-1" x="61.53" y="20.51" width="2.56" height="2.56"/><rect class="cls-1" x="2.56" y="23.07" width="2.56" height="2.56"/><rect class="cls-1" x="5.13" y="23.07" width="2.56" height="2.56"/><rect class="cls-1" x="7.69" y="23.07" width="2.56" height="2.56"/><rect class="cls-1" x="10.26" y="23.07" width="2.56" height="2.56"/><rect class="cls-1" x="17.95" y="23.07" width="2.56" height="2.56"/><rect class="cls-1" x="23.07" y="23.07" width="2.56" height="2.56"/><rect class="cls-1" x="28.2" y="23.07" width="2.56" height="2.56"/><rect class="cls-1" x="30.77" y="23.07" width="2.56" height="2.56"/><rect class="cls-1" x="33.33" y="23.07" width="2.56" height="2.56"/><rect class="cls-1" x="41.02" y="23.07" width="2.56" height="2.56"/><rect class="cls-1" x="48.71" y="23.07" width="2.56" height="2.56"/><rect class="cls-1" x="58.97" y="23.07" width="2.56" height="2.56"/><rect class="cls-1" x="2.56" y="25.64" width="2.56" height="2.56"/><rect class="cls-1" x="15.38" y="25.64" width="2.56" height="2.56"/><rect class="cls-1" x="17.95" y="25.64" width="2.56" height="2.56"/><rect class="cls-1" x="23.07" y="25.64" width="2.56" height="2.56"/><rect class="cls-1" x="25.64" y="25.64" width="2.56" height="2.56"/><rect class="cls-1" x="28.2" y="25.64" width="2.56" height="2.56"/><rect class="cls-1" x="30.77" y="25.64" width="2.56" height="2.56"/><rect class="cls-1" x="41.02" y="25.64" width="2.56" height="2.56"/><rect class="cls-1" x="48.71" y="25.64" width="2.56" height="2.56"/><rect class="cls-1" x="51.28" y="25.64" width="2.56" height="2.56"/><rect class="cls-1" x="2.56" y="28.2" width="2.56" height="2.56"/><rect class="cls-1" x="7.69" y="28.2" width="2.56" height="2.56"/><rect class="cls-1" x="12.82" y="28.2" width="2.56" height="2.56"/><rect class="cls-1" x="17.95" y="28.2" width="2.56" height="2.56"/><rect class="cls-1" x="20.51" y="28.2" width="2.56" height="2.56"/><rect class="cls-1" x="30.77" y="28.2" width="2.56" height="2.56"/><rect class="cls-1" x="33.33" y="28.2" width="2.56" height="2.56"/><rect class="cls-1" x="35.89" y="28.2" width="2.56" height="2.56"/><rect class="cls-1" x="46.15" y="28.2" width="2.56" height="2.56"/><rect class="cls-1" x="48.71" y="28.2" width="2.56" height="2.56"/><rect class="cls-1" x="53.84" y="28.2" width="2.56" height="2.56"/><rect class="cls-1" x="56.4" y="28.2" width="2.56" height="2.56"/><rect class="cls-1" y="30.77" width="2.56" height="2.56"/><rect class="cls-1" x="5.13" y="30.77" width="2.56" height="2.56"/><rect class="cls-1" x="15.38" y="30.77" width="2.56" height="2.56"/><rect class="cls-1" x="17.95" y="30.77" width="2.56" height="2.56"/><rect class="cls-1" x="20.51" y="30.77" width="2.56" height="2.56"/><rect class="cls-1" x="25.64" y="30.77" width="2.56" height="2.56"/><rect class="cls-1" x="30.77" y="30.77" width="2.56" height="2.56"/><rect class="cls-1" x="33.33" y="30.77" width="2.56" height="2.56"/><rect class="cls-1" x="43.59" y="30.77" width="2.56" height="2.56"/><rect class="cls-1" x="46.15" y="30.77" width="2.56" height="2.56"/><rect class="cls-1" x="51.28" y="30.77" width="2.56" height="2.56"/><rect class="cls-1" x="56.4" y="30.77" width="2.56" height="2.56"/><rect class="cls-1" x="58.97" y="30.77" width="2.56" height="2.56"/><rect class="cls-1" x="61.53" y="30.77" width="2.56" height="2.56"/><rect class="cls-1" x="2.56" y="33.33" width="2.56" height="2.56"/><rect class="cls-1" x="7.69" y="33.33" width="2.56" height="2.56"/><rect class="cls-1" x="10.26" y="33.33" width="2.56" height="2.56"/><rect class="cls-1" x="12.82" y="33.33" width="2.56" height="2.56"/><rect class="cls-1" x="20.51" y="33.33" width="2.56" height="2.56"/><rect class="cls-1" x="28.2" y="33.33" width="2.56" height="2.56"/><rect class="cls-1" x="30.77" y="33.33" width="2.56" height="2.56"/><rect class="cls-1" x="33.33" y="33.33" width="2.56" height="2.56"/><rect class="cls-1" x="35.89" y="33.33" width="2.56" height="2.56"/><rect class="cls-1" x="38.46" y="33.33" width="2.56" height="2.56"/><rect class="cls-1" x="41.02" y="33.33" width="2.56" height="2.56"/><rect class="cls-1" x="43.59" y="33.33" width="2.56" height="2.56"/><rect class="cls-1" x="46.15" y="33.33" width="2.56" height="2.56"/><rect class="cls-1" x="48.71" y="33.33" width="2.56" height="2.56"/><rect class="cls-1" x="51.28" y="33.33" width="2.56" height="2.56"/><rect class="cls-1" x="61.53" y="33.33" width="2.56" height="2.56"/><rect class="cls-1" x="2.56" y="35.89" width="2.56" height="2.56"/><rect class="cls-1" x="10.26" y="35.89" width="2.56" height="2.56"/><rect class="cls-1" x="15.38" y="35.89" width="2.56" height="2.56"/><rect class="cls-1" x="25.64" y="35.89" width="2.56" height="2.56"/><rect class="cls-1" x="28.2" y="35.89" width="2.56" height="2.56"/><rect class="cls-1" x="35.89" y="35.89" width="2.56" height="2.56"/><rect class="cls-1" x="41.02" y="35.89" width="2.56" height="2.56"/><rect class="cls-1" x="51.28" y="35.89" width="2.56" height="2.56"/><rect class="cls-1" x="56.4" y="35.89" width="2.56" height="2.56"/><rect class="cls-1" x="58.97" y="35.89" width="2.56" height="2.56"/><rect class="cls-1" y="38.46" width="2.56" height="2.56"/><rect class="cls-1" x="7.69" y="38.46" width="2.56" height="2.56"/><rect class="cls-1" x="10.26" y="38.46" width="2.56" height="2.56"/><rect class="cls-1" x="20.51" y="38.46" width="2.56" height="2.56"/><rect class="cls-1" x="23.07" y="38.46" width="2.56" height="2.56"/><rect class="cls-1" x="25.64" y="38.46" width="2.56" height="2.56"/><rect class="cls-1" x="28.2" y="38.46" width="2.56" height="2.56"/><rect class="cls-1" x="35.89" y="38.46" width="2.56" height="2.56"/><rect class="cls-1" x="38.46" y="38.46" width="2.56" height="2.56"/><rect class="cls-1" x="41.02" y="38.46" width="2.56" height="2.56"/><rect class="cls-1" x="43.59" y="38.46" width="2.56" height="2.56"/><rect class="cls-1" x="46.15" y="38.46" width="2.56" height="2.56"/><rect class="cls-1" x="48.71" y="38.46" width="2.56" height="2.56"/><rect class="cls-1" x="51.28" y="38.46" width="2.56" height="2.56"/><rect class="cls-1" x="61.53" y="38.46" width="2.56" height="2.56"/><rect class="cls-1" x="10.26" y="41.02" width="2.56" height="2.56"/><rect class="cls-1" x="15.38" y="41.02" width="2.56" height="2.56"/><rect class="cls-1" x="20.51" y="41.02" width="2.56" height="2.56"/><rect class="cls-1" x="25.64" y="41.02" width="2.56" height="2.56"/><rect class="cls-1" x="30.77" y="41.02" width="2.56" height="2.56"/><rect class="cls-1" x="35.89" y="41.02" width="2.56" height="2.56"/><rect class="cls-1" x="38.46" y="41.02" width="2.56" height="2.56"/><rect class="cls-1" x="41.02" y="41.02" width="2.56" height="2.56"/><rect class="cls-1" x="43.59" y="41.02" width="2.56" height="2.56"/><rect class="cls-1" x="46.15" y="41.02" width="2.56" height="2.56"/><rect class="cls-1" x="48.71" y="41.02" width="2.56" height="2.56"/><rect class="cls-1" x="51.28" y="41.02" width="2.56" height="2.56"/><rect class="cls-1" x="53.84" y="41.02" width="2.56" height="2.56"/><rect class="cls-1" x="56.4" y="41.02" width="2.56" height="2.56"/><rect class="cls-1" x="58.97" y="41.02" width="2.56" height="2.56"/><rect class="cls-1" x="61.53" y="41.02" width="2.56" height="2.56"/><rect class="cls-1" x="20.51" y="43.59" width="2.56" height="2.56"/><rect class="cls-1" x="25.64" y="43.59" width="2.56" height="2.56"/><rect class="cls-1" x="41.02" y="43.59" width="2.56" height="2.56"/><rect class="cls-1" x="51.28" y="43.59" width="2.56" height="2.56"/><rect class="cls-1" x="56.4" y="43.59" width="2.56" height="2.56"/><rect class="cls-1" x="61.53" y="43.59" width="2.56" height="2.56"/><rect class="cls-1" x="20.51" y="46.15" width="2.56" height="2.56"/><rect class="cls-1" x="33.33" y="46.15" width="2.56" height="2.56"/><rect class="cls-1" x="35.89" y="46.15" width="2.56" height="2.56"/><rect class="cls-1" x="41.02" y="46.15" width="2.56" height="2.56"/><rect class="cls-1" x="46.15" y="46.15" width="2.56" height="2.56"/><rect class="cls-1" x="51.28" y="46.15" width="2.56" height="2.56"/><rect class="cls-1" x="56.4" y="46.15" width="2.56" height="2.56"/><rect class="cls-1" x="58.97" y="46.15" width="2.56" height="2.56"/><rect class="cls-1" x="61.53" y="46.15" width="2.56" height="2.56"/><rect class="cls-1" x="20.51" y="48.71" width="2.56" height="2.56"/><rect class="cls-1" x="23.07" y="48.71" width="2.56" height="2.56"/><rect class="cls-1" x="25.64" y="48.71" width="2.56" height="2.56"/><rect class="cls-1" x="28.2" y="48.71" width="2.56" height="2.56"/><rect class="cls-1" x="33.33" y="48.71" width="2.56" height="2.56"/><rect class="cls-1" x="35.89" y="48.71" width="2.56" height="2.56"/><rect class="cls-1" x="38.46" y="48.71" width="2.56" height="2.56"/><rect class="cls-1" x="41.02" y="48.71" width="2.56" height="2.56"/><rect class="cls-1" x="51.28" y="48.71" width="2.56" height="2.56"/><rect class="cls-1" x="23.07" y="51.28" width="2.56" height="2.56"/><rect class="cls-1" x="33.33" y="51.28" width="2.56" height="2.56"/><rect class="cls-1" x="35.89" y="51.28" width="2.56" height="2.56"/><rect class="cls-1" x="41.02" y="51.28" width="2.56" height="2.56"/><rect class="cls-1" x="43.59" y="51.28" width="2.56" height="2.56"/><rect class="cls-1" x="46.15" y="51.28" width="2.56" height="2.56"/><rect class="cls-1" x="48.71" y="51.28" width="2.56" height="2.56"/><rect class="cls-1" x="51.28" y="51.28" width="2.56" height="2.56"/><rect class="cls-1" x="53.84" y="51.28" width="2.56" height="2.56"/><rect class="cls-1" x="58.97" y="51.28" width="2.56" height="2.56"/><rect class="cls-1" x="20.51" y="53.84" width="2.56" height="2.56"/><rect class="cls-1" x="23.07" y="53.84" width="2.56" height="2.56"/><rect class="cls-1" x="25.64" y="53.84" width="2.56" height="2.56"/><rect class="cls-1" x="43.59" y="53.84" width="2.56" height="2.56"/><rect class="cls-1" x="46.15" y="53.84" width="2.56" height="2.56"/><rect class="cls-1" x="51.28" y="53.84" width="2.56" height="2.56"/><rect class="cls-1" x="53.84" y="53.84" width="2.56" height="2.56"/><rect class="cls-1" x="56.4" y="53.84" width="2.56" height="2.56"/><rect class="cls-1" x="58.97" y="53.84" width="2.56" height="2.56"/><rect class="cls-1" x="61.53" y="53.84" width="2.56" height="2.56"/><rect class="cls-1" x="20.51" y="56.4" width="2.56" height="2.56"/><rect class="cls-1" x="23.07" y="56.4" width="2.56" height="2.56"/><rect class="cls-1" x="25.64" y="56.4" width="2.56" height="2.56"/><rect class="cls-1" x="35.89" y="56.4" width="2.56" height="2.56"/><rect class="cls-1" x="38.46" y="56.4" width="2.56" height="2.56"/><rect class="cls-1" x="41.02" y="56.4" width="2.56" height="2.56"/><rect class="cls-1" x="46.15" y="56.4" width="2.56" height="2.56"/><rect class="cls-1" x="51.28" y="56.4" width="2.56" height="2.56"/><rect class="cls-1" x="56.4" y="56.4" width="2.56" height="2.56"/><rect class="cls-1" x="58.97" y="56.4" width="2.56" height="2.56"/><rect class="cls-1" x="23.07" y="58.97" width="2.56" height="2.56"/><rect class="cls-1" x="28.2" y="58.97" width="2.56" height="2.56"/><rect class="cls-1" x="30.77" y="58.97" width="2.56" height="2.56"/><rect class="cls-1" x="33.33" y="58.97" width="2.56" height="2.56"/><rect class="cls-1" x="35.89" y="58.97" width="2.56" height="2.56"/><rect class="cls-1" x="51.28" y="58.97" width="2.56" height="2.56"/><rect class="cls-1" x="56.4" y="58.97" width="2.56" height="2.56"/><rect class="cls-1" x="20.51" y="61.53" width="2.56" height="2.56"/><rect class="cls-1" x="23.07" y="61.53" width="2.56" height="2.56"/><rect class="cls-1" x="25.64" y="61.53" width="2.56" height="2.56"/><rect class="cls-1" x="28.2" y="61.53" width="2.56" height="2.56"/><rect class="cls-1" x="38.46" y="61.53" width="2.56" height="2.56"/><rect class="cls-1" x="43.59" y="61.53" width="2.56" height="2.56"/><rect class="cls-1" x="46.15" y="61.53" width="2.56" height="2.56"/><rect class="cls-1" x="48.71" y="61.53" width="2.56" height="2.56"/><rect class="cls-1" x="51.28" y="61.53" width="2.56" height="2.56"/><rect class="cls-1" x="53.84" y="61.53" width="2.56" height="2.56"/><rect class="cls-1" x="56.4" y="61.53" width="2.56" height="2.56"/><rect class="cls-1" x="58.97" y="61.53" width="2.56" height="2.56"/><rect class="cls-1" x="61.53" y="61.53" width="2.56" height="2.56"/><rect class="cls-2" x="2.69" y="2.69" width="12.56" height="12.56"/><path class="cls-1" d="M15.25,0H0V18H18V0Zm0,15.25H2.69V2.69H15.25Z"/><rect class="cls-2" x="48.84" y="2.69" width="12.56" height="12.56"/><path class="cls-1" d="M61.4,0H46.15V18H64.1V0Zm0,15.25H48.84V2.69H61.4Z"/><rect class="cls-2" x="2.69" y="48.84" width="12.56" height="12.56"/><path class="cls-1" d="M15.25,46.15H0V64.1H18V46.15Zm0,15.25H2.69V48.84H15.25Z"/><rect class="cls-1" x="5.13" y="5.13" width="7.69" height="7.69"/><rect class="cls-1" x="51.28" y="5.13" width="7.69" height="7.69"/><rect class="cls-1" x="5.13" y="51.28" width="7.69" height="7.69"/></g></g></svg>