<svg id="Layer_1" data-name="Layer 1" xmlns="http://www.w3.org/2000/svg" xmlns:xlink="http://www.w3.org/1999/xlink" viewBox="0 0 198.43 283.46"><defs><style>.cls-1{fill:none;}.cls-2{fill:#fff;}.cls-3{clip-path:url(#clip-path);}.cls-4{opacity:0.09;}.cls-5{fill:#0e4d76;}.cls-6{fill:#88bd40;}.cls-7{fill:#dedc33;}.cls-8{fill:#dedd33;}.cls-9{fill:#88bd41;}.cls-10{fill:#87bd41;}.cls-11{fill:#89bd41;}</style><clipPath id="clip-path"><rect class="cls-1" width="198.43" height="283.46"/></clipPath></defs><rect class="cls-2" x="-2.35" y="-3.26" width="203.48" height="291.65"/><g class="cls-3"><g class="cls-4"><path class="cls-5" d="M-115,257.32c1.47-1.79,2.86-3.66,4.44-5.36,2.47-2.67,5.08-2.49,7.61,0a17.84,17.84,0,0,1,2.12,2.23c13.63,19.15,31.7,34.12,47.81,50.94,5.58,5.83,11.3,11.52,17,17.29,11.2,11.45,21.71,12.64,35,3.95l1.94-1.26c-.72,8.83-1.37,17.06-2.07,25.28a153.19,153.19,0,0,0,0,29.9c.71,6.51.57,6.9-5.67,8.69-13.22,3.78-24.73.33-34.3-9.2-22.25-22.17-44.26-44.6-66.5-66.78-14.77-14.72-29.81-29.16-44.66-43.8-16.72-16.51-16.8-36.37-.18-53q42.65-42.65,85.4-85.16c8.52-8.5,16.9-17.16,25.65-25.42,11.21-10.57,24.3-13.33,38.9-8.14,5.85,2.08,7.39,5.52,6.29,11.65-1.87,10.48-1.17,21-.27,31.58C4.16,149.5,6,158.11,7.69,167.2c-3.8-3.22-7.11-6.3-10.69-9-5.61-4.27-11.93-6.07-19-4.59a12.32,12.32,0,0,0-6.57,3.19q-38.58,38.68-77.23,77.28a37,37,0,0,0-10.6,20.36,12.24,12.24,0,0,0,0,2.1Z"/><path class="cls-6" d="M105.64,200.33c3.06,5.35,8,9,12,13.48,3.26,3.68,7,6.92,9.35,11.39,7.54,14.05,5.63,29.55-5.52,41.06-6.83,7.05-13.92,13.85-20.89,20.77-1.76-.34-2.69-1.69-3.56-3-6.81-10.58-14-20.91-21.33-31.12a19.9,19.9,0,0,1-3.62-9.28,31.78,31.78,0,0,0-10-19.53c-3.82-3.63-7.3-7.59-11.51-10.82-1.56-1.2-3.39-2.45-3.24-4.89-3-5.68-7.95-9.79-11.53-15C24.14,176.16,17,157.26,13.33,136.92c-1.5-8.25-1.81-16.6-2.73-24.9-.13-1.12-.69-2.69.32-3.3,1.52-.93,2.3,1,3.08,1.74,12.65,12.48,25.17,25.09,37.78,37.59,8.65,8.57,17.46,17,26.07,25.59a8.31,8.31,0,0,0,3.2,2.05c2.55,1,4.11,3.22,6,5.05,5.3,5.22,10.54,10.51,15.79,15.77C103.93,197.65,105.18,198.7,105.64,200.33Z"/><path class="cls-7" d="M47.4,208.35c5.48,5.29,11,10.53,16.43,15.88s8.74,11.7,9.28,19.32c.33,4.69,2.92,8.3,5.53,11.73,7.8,10.27,14.46,21.3,22,31.75,1.87,5.85,5.29,11,7.88,16.49,6.18,13.22,11.65,26.66,15,40.9.33,1.4.37,2.88.68,5.39-6.27-6.15-11.84-11.59-17.38-17.07C98.89,324.88,91,317,83,309.15c-.67-.65-1.85-.79-2.79-1.17-7.86-7.36-15.25-15.19-22.92-22.74-3.32-3.27-6.47-6.72-10.5-9.18.63-2-.51-3.12-1.79-4.43-5.81-6-12.44-11.22-16.06-19-5.46-11.79-3.21-22.9,6.18-31.57C39.45,217,43.33,212.59,47.4,208.35Z"/><path class="cls-6" d="M46.81,276.06c2.25-.67,3.6,1,4.83,2.22C60.52,287,69.3,295.85,78.06,304.7A19.42,19.42,0,0,1,80.23,308c-7.6,7.35-15.27,14.63-22.79,22Q33.2,354,9.07,378c-.48.47-1,.9-2.2,2A141.7,141.7,0,0,1,11,348.48c5.15-21.09,12.6-41.28,25-59.35A86.59,86.59,0,0,1,46.81,276.06Z"/><path class="cls-6" d="M79.5,153.93c-10.67,0-21.49-9.23-23.86-19.66-1.6-7-2.15-14,1.9-20.38,5.4-8.59,14.5-12.47,24.94-6.75,15.49,8.49,19.44,29.23,10.2,40.7C89.1,152.29,84.65,154.34,79.5,153.93Z"/><path class="cls-8" d="M105.64,200.33a340.25,340.25,0,0,1-24.59-24.64l45.93-46C132.36,145.68,120.64,183.77,105.64,200.33Z"/></g></g><path class="cls-5" d="M54.86,37.47c.16-.19.31-.4.48-.58a.52.52,0,0,1,.83,0,2.61,2.61,0,0,1,.23.24,51.22,51.22,0,0,0,5.19,5.53c.6.64,1.23,1.25,1.84,1.88a2.64,2.64,0,0,0,3.8.43l.21-.14c-.08,1-.15,1.85-.23,2.75a16.7,16.7,0,0,0,0,3.24c.08.71.06.75-.62,1a3.6,3.6,0,0,1-3.72-1c-2.41-2.41-4.8-4.84-7.22-7.25-1.6-1.6-3.24-3.17-4.85-4.76a3.73,3.73,0,0,1,0-5.75l9.27-9.25c.93-.92,1.84-1.86,2.79-2.76a3.89,3.89,0,0,1,4.22-.88,1,1,0,0,1,.69,1.26,12.71,12.71,0,0,0,0,3.43c.08,1,.28,1.89.46,2.88-.41-.35-.77-.69-1.16-1a2.43,2.43,0,0,0-2.06-.5,1.36,1.36,0,0,0-.72.35L55.86,35a4,4,0,0,0-1.15,2.21,1.62,1.62,0,0,0,0,.22Z"/><path class="cls-5" d="M147.62,37.79c-.14-.19-.18-.32,0-.52a4.67,4.67,0,0,0,1.05-1.85,15.42,15.42,0,0,0,.41-4.27c-.08-.84,0-1.76-.12-2.69a5.36,5.36,0,0,0-2.41-4.12,7.55,7.55,0,0,0-6-.84,5.46,5.46,0,0,0-4.37,5.17,30.32,30.32,0,0,0,0,5.39,5.27,5.27,0,0,0,2.28,4,7.65,7.65,0,0,0,5.29,1c.41,0,.88-.34,1.2-.21s.55.62.81,1a1.08,1.08,0,0,0,.9.54c.62,0,1.24,0,1.87,0s.68-.32.38-.76C148.49,39,148.05,38.4,147.62,37.79Zm-1.78-4c-.28,2.14-1.8,3.13-3.9,2.85a2.92,2.92,0,0,1-2.63-2.92,20.4,20.4,0,0,1,0-5,3.07,3.07,0,0,1,3.62-2.93c1.83.16,2.87,1.38,3,3.41,0,.69,0,1.37,0,2.06A17.82,17.82,0,0,1,145.84,33.77Z"/><path class="cls-5" d="M106.82,38.06c-1.62-4.32-3.23-8.65-4.86-13-.62-1.65-.35-1.66-2.35-1.63h-.72c-1,0-1.08,0-1.45,1-.66,1.78-1.34,3.56-2,5.35l-3.09,8.3c-.22.59-.07.8.55.81s1.08,0,1.62,0a.72.72,0,0,0,.79-.54c.27-.74.56-1.46.81-2.2a.5.5,0,0,1,.55-.39c2,0,3.89,0,5.84,0a.5.5,0,0,1,.54.4c.28.77.58,1.53.87,2.29a.62.62,0,0,0,.65.44h1.63C106.94,38.94,107.07,38.76,106.82,38.06Zm-5.19-4.69H97.47c-.28,0-.48,0-.34-.39.77-2.07,1.53-4.15,2.3-6.22a.29.29,0,0,1,.23-.22L102,32.87C102.17,33.33,102.13,33.37,101.63,33.37Z"/><path class="cls-5" d="M134.72,38.17c-.67-1.81-1.35-3.61-2-5.42q-1.58-4.26-3.16-8.51c-.24-.65-.46-.78-1.14-.78s-1.34,0-2,0a1,1,0,0,0-1,.69c-1.32,3.55-2.66,7.09-4,10.64-.42,1.13-.83,2.26-1.23,3.4-.19.52,0,.74.53.75s1.09,0,1.63,0a.73.73,0,0,0,.79-.53c.28-.73.57-1.45.83-2.19a.51.51,0,0,1,.56-.42c1.95,0,3.89,0,5.84,0a.49.49,0,0,1,.54.4c.16.47.37.94.54,1.42.59,1.56.42,1.29,1.87,1.31h.86C134.78,38.94,134.93,38.71,134.72,38.17Zm-5.16-4.8c-1.42,0-2.84,0-4.25,0-.29,0-.42,0-.3-.38.79-2.11,1.56-4.24,2.34-6.36,0,0,.05-.07.15-.19.34.9.65,1.73.95,2.56.48,1.3.94,2.61,1.43,3.9C130,33.26,130,33.38,129.56,33.37Z"/><path class="cls-6" d="M78.82,31.28a9.57,9.57,0,0,0,1.3,1.47,6.67,6.67,0,0,1,1,1.23,3.68,3.68,0,0,1-.6,4.46C79.8,39.21,79,40,78.27,40.7a.67.67,0,0,1-.39-.33c-.73-1.15-1.51-2.27-2.31-3.38a2.1,2.1,0,0,1-.39-1,3.42,3.42,0,0,0-1.09-2.12,15.43,15.43,0,0,0-1.25-1.17c-.16-.13-.36-.27-.35-.53a16.5,16.5,0,0,0-1.25-1.64,15.78,15.78,0,0,1-2.45-6.12c-.16-.9-.19-1.8-.29-2.7,0-.13-.08-.3,0-.36s.25.1.34.19c1.37,1.35,2.73,2.72,4.1,4.08.94.93,1.89,1.84,2.83,2.78a1,1,0,0,0,.35.22,2.11,2.11,0,0,1,.64.55c.58.56,1.15,1.14,1.72,1.71A1,1,0,0,1,78.82,31.28Z"/><path class="cls-5" d="M109.08,31.2v-7c0-.54.16-.71.71-.71H119c.51,0,.68.18.69.69v1.19c0,.65-.11.76-.75.76-2.13,0-4.27,0-6.4,0-.36,0-.46.08-.45.44,0,1.15,0,2.3,0,3.45,0,.29.09.37.38.36,2,0,4,0,5.93,0,.78,0,.88.11.88.88v1c0,.58-.16.74-.73.74-2,0-3.92,0-5.88,0-.51,0-.59.15-.58.6,0,1.55,0,3.09,0,4.64,0,.63-.17.79-.78.79h-1.53c-.59,0-.73-.14-.73-.71Z"/><path class="cls-7" d="M72.49,32.16c.6.57,1.2,1.14,1.79,1.72a3.19,3.19,0,0,1,1,2.1,2.43,2.43,0,0,0,.6,1.27c.85,1.11,1.57,2.31,2.39,3.45a15.46,15.46,0,0,0,.86,1.79,23.15,23.15,0,0,1,1.63,4.44c0,.15,0,.31.07.58l-1.89-1.85c-.86-.85-1.71-1.71-2.58-2.56a.91.91,0,0,0-.3-.13c-.86-.8-1.66-1.65-2.49-2.47a6.33,6.33,0,0,0-1.14-1c.07-.22-.06-.34-.2-.48A7.86,7.86,0,0,1,70.49,37a2.78,2.78,0,0,1,.67-3.43C71.63,33.1,72.05,32.62,72.49,32.16Z"/><path class="cls-6" d="M72.43,39.51c.24-.08.39.11.52.24,1,.94,1.92,1.9,2.87,2.87a2.16,2.16,0,0,1,.24.35c-.83.8-1.66,1.59-2.48,2.4l-5.25,5.21-.24.21a15.6,15.6,0,0,1,.45-3.42,19.51,19.51,0,0,1,2.71-6.45A9.91,9.91,0,0,1,72.43,39.51Z"/><path class="cls-6" d="M76,26.25a2.88,2.88,0,0,1-2.59-2.14,2.75,2.75,0,0,1,.2-2.21,1.91,1.91,0,0,1,2.71-.73,3.08,3.08,0,0,1,1.11,4.42A1.62,1.62,0,0,1,76,26.25Z"/><path class="cls-8" d="M78.82,31.28a37.36,37.36,0,0,1-2.67-2.67l5-5C81.72,25.35,80.44,29.49,78.82,31.28Z"/><path class="cls-9" d="M146,45.45c0-.62.06-1.24.11-1.86,0-.18-.14-.49.16-.52s.69-.17.93.24c.36.63.75,1.25,1.13,1.87.08.14.18.27.26.4s0,.16.16.14.09-.14.09-.23c0-.7.07-1.4.11-2.1,0-.32.14-.35.4-.35s.25.23.24.4c-.05.94-.11,1.88-.18,2.81,0,.16.09.42-.17.42s-.59.19-.8-.19c-.44-.75-.91-1.48-1.39-2.21-.07-.11-.09-.36-.31-.29s-.09.25-.1.39c0,.65,0,1.3-.07,2,0,.25-.09.36-.36.36s-.25-.2-.24-.38v-.86Z"/><path class="cls-9" d="M143.16,43a1.94,1.94,0,0,0-2.09,1.86,1.74,1.74,0,0,0,2,1.87,1.87,1.87,0,0,0,2.13-1.92C145.2,43.53,144.3,43,143.16,43Zm-.06,3.21c-.88,0-1.3-.42-1.3-1.32a1.28,1.28,0,0,1,1.34-1.38,1.2,1.2,0,0,1,1.3,1.34A1.22,1.22,0,0,1,143.1,46.16Z"/><path class="cls-10" d="M123.44,44.41A1.38,1.38,0,0,0,122,43.05c-.56,0-1.12,0-1.67,0-.22,0-.29.08-.32.3a15.48,15.48,0,0,0-.07,1.8c0,.38,0,.76-.09,1.14s0,.43.34.4.83,0,1.25,0A1.94,1.94,0,0,0,123.44,44.41Zm-.86,1a1.16,1.16,0,0,1-1.14.71c-.81,0-.81,0-.81-.79V45h0c0-.43.06-.86.08-1.29,0-.17.06-.27.24-.28a3.07,3.07,0,0,1,1.31.18.59.59,0,0,1,.27.25A1.59,1.59,0,0,1,122.58,45.44Z"/><path class="cls-6" d="M112.46,45c-1,0-1,0-1,1,0,.22.25.6-.25.67s-.53,0-.48-.45a24.73,24.73,0,0,0,.1-2.72.47.47,0,0,1,.71-.45c.19.08.07.22.06.32-.11,1.13-.11,1.13,1,1.13h.1c.85,0,.84,0,.88-.89,0-.21-.19-.57.3-.58.33,0,.43.07.42.42,0,1-.18,1.93-.12,2.91,0,.32-.15.31-.38.31s-.4,0-.36-.33,0-.6,0-.9,0-.53-.42-.47A5.42,5.42,0,0,1,112.46,45Z"/><path class="cls-6" d="M94.14,45c-1,0-1,0-1,1,0,.14,0,.28,0,.43,0,.43-.33.23-.52.27s-.23-.17-.23-.34c0-1,.2-2,.15-3,0-.33.17-.33.42-.35s.31.15.33.38-.26.81.06,1,.68,0,1,0c.86,0,.87,0,.87-.91,0-.33,0-.61.46-.55.21,0,.28.11.26.3-.11,1,0,2-.11,3,0,.47-.33.32-.57.33s-.19-.23-.18-.4,0-.51.07-.76,0-.59-.48-.53A4.51,4.51,0,0,1,94.14,45Z"/><path class="cls-6" d="M124.16,45c0-.55.13-1.08.12-1.62s.31-.27.52-.28.23.2.2.37a11.08,11.08,0,0,0-.12,2,.73.73,0,0,0,.73.77c.72,0,1.08-.15,1.14-.65.09-.69.13-1.39.17-2.09,0-.29.09-.4.41-.4s.35.22.31.43a14.78,14.78,0,0,0-.13,2,1.26,1.26,0,0,1-1.1,1.19,2.51,2.51,0,0,1-1.76-.21,1,1,0,0,1-.49-.83Z"/><path class="cls-10" d="M134.49,43.36c-.05-.14-.08-.29-.29-.32-.61-.08-.77,0-1,.55-.1.21-.21.42-.32.63l-1.28,2.43c.7.06.74.08.95-.49a1.14,1.14,0,0,1,1.39-.84c.44,0,.67.09.78.58.21.84.25.82,1,.75C135.27,45.52,134.89,44.44,134.49,43.36Zm-.21,1.35c-.1.31-.39,0-.49.14-.61,0-.64,0-.37-.57,0,0,0,0,0,0,.14-.23.1-.58.44-.65C134,43.57,134.33,44.55,134.28,44.71Z"/><path class="cls-11" d="M102.64,43.46c-.07-.21-.1-.45-.41-.41s-.66-.11-.85.32c-.31.69-.68,1.35-1,2a7.46,7.46,0,0,0-.62,1.23.63.63,0,0,0,.94-.49,1,1,0,0,1,1.24-.81c.76.06.77,0,1,.73s.17.66.94.59Zm-.49,1.38a.61.61,0,0,1-.14,0c-.22,0-.53.09-.65-.12s.14-.38.23-.58a2.08,2.08,0,0,1,.43-.73c.14.41.23.76.37,1.09S102.41,44.85,102.15,44.84Z"/><path class="cls-10" d="M98.07,46.68a7.3,7.3,0,0,0-.81,0c-.44,0-.62-.12-.54-.56.16-.9,0-1.81.15-2.71,0-.27.08-.39.39-.38.65,0,1.3,0,1.95,0,.12,0,.28,0,.28.16s-.09.25-.27.25H97.89c-.46,0-.36.31-.36.56s-.09.58.36.57.67,0,1,0c.16,0,.29,0,.28.22s-.09.29-.29.27a5.57,5.57,0,0,0-1.08,0c-.53,0-.29.42-.34.67s0,.46.37.43.83,0,1.24,0c.23,0,.3.08.3.31s-.11.26-.29.25Z"/><path class="cls-9" d="M117.92,43.05h.91c.14,0,.38-.11.39.2s-.22.21-.37.21c-.39,0-.77,0-1.15,0s-.39,0-.37.34a3.83,3.83,0,0,1,0,.47c0,.22.08.32.31.32h1c.16,0,.29,0,.28.22s-.1.3-.3.27a4.26,4.26,0,0,0-1.07,0c-.23,0-.32.09-.3.31a2.57,2.57,0,0,1,0,.48c0,.24.09.31.31.3l1.24,0c.14,0,.3,0,.29.19s0,.36-.26.36h-2.11c-.23,0-.26-.11-.25-.3,0-1,.21-2.05.18-3.09,0-.18.07-.25.26-.24.35,0,.7,0,1,0Z"/><path class="cls-11" d="M131.23,46.16c0,.38-.15.53-.57.53a2.42,2.42,0,0,1-2-.59,1.75,1.75,0,0,1-.33-1.86,1.69,1.69,0,0,1,1.31-1.17,2.88,2.88,0,0,1,1.4,0c.25.07.26.21.23.38s-.21.09-.33.06c-1.34-.23-2.25.62-1.95,1.84a1.08,1.08,0,0,0,1,.85c.2,0,.41,0,.62,0Z"/><path class="cls-11" d="M106.89,46.15c.06.43-.1.56-.5.54a15.49,15.49,0,0,0-1.67,0c-.25,0-.34-.08-.33-.33.06-1,.11-2,.16-3,0-.38.31-.24.5-.26s.24.18.23.35c0,.78-.08,1.56-.14,2.33,0,.35.1.45.43.43S106.45,46.15,106.89,46.15Z"/><path class="cls-10" d="M108.75,43.05H110c.11,0,.28,0,.27.17s0,.32-.26.32h-.29c-.64,0-.64,0-.68.63s0,1.47-.07,2.2c0,.34-.2.32-.44.32s-.26-.14-.27-.36a23.57,23.57,0,0,1,.15-2.38c0-.41-.11-.57-.52-.44a1.58,1.58,0,0,1-.38,0c-.12,0-.33.09-.29-.16s0-.36.29-.35C107.89,43.06,108.32,43.05,108.75,43.05Z"/><path class="cls-11" d="M137.2,45.05V43.81c0-.28-.06-.42-.39-.31a1.74,1.74,0,0,1-.51.06c-.18,0-.25-.12-.25-.28a.22.22,0,0,1,.25-.23h2.57c.18,0,.27.08.24.27a.24.24,0,0,1-.29.23c-.93,0-.94,0-1,.92,0,.62,0,1.24,0,1.86,0,.32-.16.35-.42.36s-.3-.18-.29-.4c0-.41.05-.82.08-1.24Z"/><path class="cls-10" d="M140.39,43.63a14.87,14.87,0,0,0-.08,2.66c0,.41-.21.39-.5.4s-.29-.2-.28-.43c0-.86.05-1.72.1-2.58,0-.26-.19-.65.39-.65S140.27,43.46,140.39,43.63Z"/></svg>