<svg id="Layer_1" data-name="Layer 1" xmlns="http://www.w3.org/2000/svg" xmlns:xlink="http://www.w3.org/1999/xlink" viewBox="0 0 198.43 283.46"><defs><style>.cls-1{fill:none;}.cls-2{fill:#fff;}.cls-3{clip-path:url(#clip-path);}.cls-4{opacity:0.09;}.cls-5{fill:#0e4d76;}.cls-6{clip-path:url(#clip-path-2);}.cls-7{fill:#88bd40;}.cls-8{fill:#dedc33;}.cls-9{fill:#dedd33;}.cls-10{fill:#88bd41;}.cls-11{fill:#87bd41;}.cls-12{fill:#89bd41;}</style><clipPath id="clip-path"><rect class="cls-1" x="219.52" width="198.43" height="283.46"/></clipPath><clipPath id="clip-path-2"><rect class="cls-1" width="198.43" height="283.46"/></clipPath></defs><rect class="cls-2" x="-3.05" y="-3.26" width="203.48" height="291.65"/><g class="cls-3"><g class="cls-4"><path class="cls-5" d="M104.51,257.32c1.48-1.79,2.86-3.66,4.44-5.36,2.47-2.67,5.08-2.49,7.61,0a17.14,17.14,0,0,1,2.12,2.23c13.63,19.15,31.7,34.12,47.81,50.94,5.58,5.83,11.31,11.52,16.95,17.29,11.21,11.45,21.72,12.64,35,3.95l1.93-1.26c-.72,8.83-1.37,17.06-2.07,25.28a154,154,0,0,0,0,29.9c.72,6.51.58,6.9-5.67,8.69-13.22,3.78-24.73.33-34.3-9.2C156.05,357.61,134,335.18,111.8,313,97,298.28,82,283.84,67.14,269.2c-16.72-16.51-16.8-36.37-.17-53q42.63-42.65,85.39-85.16c8.53-8.5,16.9-17.16,25.65-25.42,11.21-10.57,24.3-13.33,38.91-8.14,5.84,2.08,7.38,5.52,6.29,11.65-1.88,10.48-1.17,21-.27,31.58.75,8.78,2.57,17.39,4.27,26.48-3.8-3.22-7.11-6.3-10.69-9-5.61-4.27-11.93-6.07-19-4.59a12.31,12.31,0,0,0-6.58,3.19q-38.58,38.68-77.23,77.28a37.1,37.1,0,0,0-10.6,20.36,13.37,13.37,0,0,0,0,2.1Z"/></g></g><g class="cls-6"><g class="cls-4"><path class="cls-5" d="M-115,257.32c1.47-1.79,2.86-3.66,4.44-5.36,2.47-2.67,5.08-2.49,7.61,0a17.84,17.84,0,0,1,2.12,2.23c13.63,19.15,31.7,34.12,47.81,50.94,5.58,5.83,11.3,11.52,17,17.29,11.2,11.45,21.71,12.64,35,3.95l1.94-1.26c-.72,8.83-1.37,17.06-2.07,25.28a153.19,153.19,0,0,0,0,29.9c.71,6.51.57,6.9-5.67,8.69-13.22,3.78-24.73.33-34.3-9.2-22.25-22.17-44.26-44.6-66.5-66.78-14.77-14.72-29.81-29.16-44.66-43.8-16.72-16.51-16.8-36.37-.18-53q42.65-42.65,85.4-85.16c8.52-8.5,16.9-17.16,25.65-25.42,11.21-10.57,24.3-13.33,38.9-8.14,5.85,2.08,7.39,5.52,6.29,11.65-1.87,10.48-1.17,21-.27,31.58C4.16,149.5,6,158.11,7.69,167.2c-3.8-3.22-7.11-6.3-10.69-9-5.61-4.27-11.93-6.07-19-4.59a12.32,12.32,0,0,0-6.57,3.19q-38.58,38.68-77.23,77.28a37,37,0,0,0-10.6,20.36,12.24,12.24,0,0,0,0,2.1Z"/><path class="cls-7" d="M105.64,200.33c3.06,5.35,8,9,12,13.48,3.26,3.68,7,6.92,9.35,11.39,7.54,14.05,5.63,29.55-5.52,41.06-6.83,7.05-13.92,13.85-20.89,20.77-1.76-.34-2.69-1.69-3.56-3-6.81-10.58-14-20.91-21.33-31.12a19.9,19.9,0,0,1-3.62-9.28,31.78,31.78,0,0,0-10-19.53c-3.82-3.63-7.3-7.59-11.51-10.82-1.56-1.2-3.39-2.45-3.24-4.89-3-5.68-7.95-9.79-11.53-15C24.14,176.16,17,157.26,13.33,136.92c-1.5-8.25-1.81-16.6-2.73-24.9-.13-1.12-.69-2.69.32-3.3,1.52-.93,2.3,1,3.08,1.74,12.65,12.48,25.17,25.09,37.78,37.59,8.65,8.57,17.46,17,26.07,25.59a8.31,8.31,0,0,0,3.2,2.05c2.55,1,4.11,3.22,6,5.05,5.3,5.22,10.54,10.51,15.79,15.77C103.93,197.65,105.18,198.7,105.64,200.33Z"/><path class="cls-8" d="M47.4,208.35c5.48,5.29,11,10.53,16.43,15.88s8.74,11.7,9.28,19.32c.33,4.69,2.92,8.3,5.53,11.73,7.8,10.27,14.46,21.3,22,31.75,1.87,5.85,5.29,11,7.88,16.49,6.18,13.22,11.65,26.66,15,40.9.33,1.4.37,2.88.68,5.39-6.27-6.15-11.84-11.59-17.38-17.07C98.89,324.88,91,317,83,309.15c-.67-.65-1.85-.79-2.79-1.17-7.86-7.36-15.25-15.19-22.92-22.74-3.32-3.27-6.47-6.72-10.5-9.18.63-2-.51-3.12-1.79-4.43-5.81-6-12.44-11.22-16.06-19-5.46-11.79-3.21-22.9,6.18-31.57C39.45,217,43.33,212.59,47.4,208.35Z"/><path class="cls-7" d="M46.81,276.06c2.25-.67,3.6,1,4.83,2.22C60.52,287,69.3,295.85,78.06,304.7A19.42,19.42,0,0,1,80.23,308c-7.6,7.35-15.27,14.63-22.79,22Q33.2,354,9.07,378c-.48.47-1,.9-2.2,2A141.7,141.7,0,0,1,11,348.48c5.15-21.09,12.6-41.28,25-59.35A86.59,86.59,0,0,1,46.81,276.06Z"/><path class="cls-7" d="M79.5,153.93c-10.67,0-21.49-9.23-23.86-19.66-1.6-7-2.15-14,1.9-20.38,5.4-8.59,14.5-12.47,24.94-6.75,15.49,8.49,19.44,29.23,10.2,40.7C89.1,152.29,84.65,154.34,79.5,153.93Z"/><path class="cls-9" d="M105.64,200.33a340.25,340.25,0,0,1-24.59-24.64l45.93-46C132.36,145.68,120.64,183.77,105.64,200.33Z"/></g></g><path class="cls-5" d="M86.52,130.66c.19-.23.36-.47.57-.69a.6.6,0,0,1,1,0,2.47,2.47,0,0,1,.28.28c1.76,2.48,4.09,4.41,6.17,6.58.72.76,1.46,1.49,2.19,2.24a3.13,3.13,0,0,0,4.52.51l.25-.16c-.1,1.14-.18,2.2-.27,3.26a19.91,19.91,0,0,0,0,3.86c.09.84.07.89-.73,1.13a4.28,4.28,0,0,1-4.43-1.19c-2.88-2.87-5.72-5.76-8.59-8.63-1.91-1.9-3.85-3.77-5.77-5.66a4.43,4.43,0,0,1,0-6.84l11-11c1.1-1.1,2.18-2.22,3.31-3.29a4.61,4.61,0,0,1,5-1,1.14,1.14,0,0,1,.82,1.51,15.48,15.48,0,0,0,0,4.08c.1,1.13.33,2.24.55,3.42-.49-.42-.91-.82-1.38-1.17a2.91,2.91,0,0,0-2.45-.59,1.62,1.62,0,0,0-.85.41l-10,10a4.79,4.79,0,0,0-1.36,2.63,1.22,1.22,0,0,0,0,.27Z"/><path class="cls-7" d="M115,123.3a11.15,11.15,0,0,0,1.55,1.74,7.83,7.83,0,0,1,1.21,1.47,4.37,4.37,0,0,1-.71,5.3c-.89.91-1.8,1.79-2.7,2.69a.73.73,0,0,1-.46-.4c-.88-1.36-1.81-2.7-2.76-4a2.49,2.49,0,0,1-.46-1.2,4.11,4.11,0,0,0-1.29-2.52,18,18,0,0,0-1.49-1.4c-.2-.15-.44-.31-.42-.63a19.61,19.61,0,0,0-1.49-1.94,18.75,18.75,0,0,1-2.91-7.28c-.19-1.07-.23-2.15-.35-3.22,0-.15-.09-.35,0-.43s.3.13.4.23l4.88,4.85,3.37,3.31a1,1,0,0,0,.41.26,2.57,2.57,0,0,1,.77.66l2,2A1.21,1.21,0,0,1,115,123.3Z"/><path class="cls-8" d="M107.49,124.33c.71.69,1.43,1.36,2.13,2a3.81,3.81,0,0,1,1.19,2.5,2.85,2.85,0,0,0,.72,1.51c1,1.33,1.87,2.76,2.84,4.11a18,18,0,0,0,1,2.13,28.06,28.06,0,0,1,1.94,5.28c0,.18,0,.37.08.7l-2.24-2.21c-1-1-2-2-3.07-3.05a1.25,1.25,0,0,0-.37-.15c-1-.95-2-2-3-2.94a7.62,7.62,0,0,0-1.35-1.18c.08-.26-.07-.4-.23-.57a9.45,9.45,0,0,1-2.08-2.46,3.32,3.32,0,0,1,.8-4.08C106.47,125.45,107,124.88,107.49,124.33Z"/><path class="cls-7" d="M107.42,133.08c.29-.09.46.13.62.29,1.15,1.12,2.28,2.26,3.41,3.41a2.36,2.36,0,0,1,.28.42c-1,1-2,1.89-2.94,2.85-2.09,2.06-4.16,4.13-6.25,6.2l-.28.25a18.34,18.34,0,0,1,.53-4.07,23,23,0,0,1,3.22-7.66A10.9,10.9,0,0,1,107.42,133.08Z"/><path class="cls-7" d="M111.64,117.3a3.4,3.4,0,0,1-3.08-2.54,3.3,3.3,0,0,1,.24-2.63,2.27,2.27,0,0,1,3.23-.87,3.66,3.66,0,0,1,1.31,5.26A1.89,1.89,0,0,1,111.64,117.3Z"/><path class="cls-9" d="M115,123.3c-1.11-1-2.18-2.07-3.18-3.19l5.93-5.94C118.47,116.24,117,121.16,115,123.3Z"/><path class="cls-5" d="M117.06,167.82c-.09-.13-.12-.22,0-.36a3.15,3.15,0,0,0,.71-1.23,10.3,10.3,0,0,0,.26-2.85c-.05-.57,0-1.18-.07-1.8a3.61,3.61,0,0,0-1.61-2.75,5,5,0,0,0-4-.57,3.66,3.66,0,0,0-2.92,3.46,20.61,20.61,0,0,0,0,3.6,3.58,3.58,0,0,0,1.52,2.69,5.11,5.11,0,0,0,3.54.66c.27,0,.59-.22.81-.14s.36.42.53.65a.74.74,0,0,0,.61.36c.41,0,.83,0,1.24,0s.46-.21.26-.5S117.35,168.22,117.06,167.82Zm-1.18-2.69a2.1,2.1,0,0,1-2.61,1.9,2,2,0,0,1-1.76-1.95,13.82,13.82,0,0,1,0-3.34,2.06,2.06,0,0,1,2.42-2,2.11,2.11,0,0,1,2,2.28c0,.46,0,.92,0,1.38A13.67,13.67,0,0,1,115.88,165.13Z"/><path class="cls-5" d="M89.8,168c-1.08-2.89-2.16-5.79-3.25-8.67-.41-1.11-.23-1.11-1.57-1.09H84.5c-.68,0-.72,0-1,.68-.44,1.19-.89,2.38-1.34,3.57q-1,2.77-2.06,5.55c-.15.4,0,.54.36.54s.72,0,1.08,0a.5.5,0,0,0,.53-.37c.18-.49.37-1,.54-1.47a.34.34,0,0,1,.37-.26h3.9a.33.33,0,0,1,.36.27l.58,1.53a.42.42,0,0,0,.44.29h1.09C89.88,168.58,90,168.46,89.8,168Zm-3.47-3.14H83.55c-.19,0-.32,0-.23-.26.52-1.39,1-2.77,1.54-4.16a.19.19,0,0,1,.15-.14c.53,1.41,1,2.82,1.56,4.22C86.69,164.83,86.67,164.86,86.33,164.86Z"/><path class="cls-5" d="M108.45,168.07c-.46-1.21-.91-2.42-1.36-3.62-.71-1.9-1.41-3.8-2.12-5.69-.16-.43-.3-.52-.76-.52s-.89,0-1.34,0a.63.63,0,0,0-.64.46c-.88,2.37-1.78,4.74-2.67,7.11-.28.75-.55,1.51-.82,2.27-.13.35,0,.5.36.5s.72,0,1.08,0a.48.48,0,0,0,.53-.36c.19-.48.38-1,.55-1.46a.35.35,0,0,1,.38-.28h3.9a.34.34,0,0,1,.37.27c.1.32.24.63.36.94.39,1.05.28.87,1.25.88h.57C108.48,168.58,108.58,168.43,108.45,168.07ZM105,164.86c-.94,0-1.89,0-2.84,0-.19,0-.28,0-.19-.25l1.56-4.25s0-.05.1-.13c.22.6.43,1.15.64,1.71.32.87.62,1.74.95,2.61C105.3,164.79,105.26,164.86,105,164.86Z"/><path class="cls-5" d="M91.31,163.41v-4.7c0-.36.11-.47.47-.47,2.06,0,4.11,0,6.17,0,.34,0,.46.12.46.46s0,.53,0,.8c0,.43-.07.5-.5.5H93.63c-.23,0-.3.05-.3.29,0,.77,0,1.53,0,2.3,0,.2,0,.25.25.25h4c.52,0,.59.08.59.6v.64c0,.38-.11.49-.49.49-1.31,0-2.62,0-3.93,0-.34,0-.39.1-.39.41,0,1,0,2.06,0,3.1,0,.41-.11.52-.52.52h-1c-.4,0-.49-.09-.49-.47Z"/><path class="cls-10" d="M116,172.93c0-.41,0-.83.08-1.24,0-.12-.09-.33.1-.35s.47-.11.63.16c.24.43.5.84.75,1.26l.18.26s0,.11.1.1.07-.1.07-.16c0-.47,0-.93.06-1.4,0-.21.1-.24.28-.24s.16.16.15.27c0,.63-.07,1.25-.11,1.88,0,.1.06.28-.12.28s-.39.12-.54-.13c-.29-.5-.6-1-.92-1.48,0-.07-.06-.24-.21-.19s-.06.17-.07.26c0,.44,0,.87,0,1.31,0,.17-.06.24-.25.24s-.16-.13-.16-.25,0-.39,0-.58Z"/><path class="cls-10" d="M114.09,171.26a1.29,1.29,0,0,0-1.4,1.25,1.16,1.16,0,0,0,1.31,1.25,1.26,1.26,0,0,0,1.43-1.29C115.45,171.65,114.85,171.28,114.09,171.26Zm0,2.14c-.6,0-.87-.27-.87-.88a.85.85,0,0,1,.89-.92.9.9,0,0,1,0,1.8Z"/><path class="cls-11" d="M100.9,172.24a.91.91,0,0,0-.94-.91H98.85c-.15,0-.2.05-.22.2a9.79,9.79,0,0,0,0,1.21l-.06.76c0,.18,0,.28.23.27s.55,0,.83,0A1.28,1.28,0,0,0,100.9,172.24Zm-.57.69a.78.78,0,0,1-.76.47c-.54,0-.54,0-.54-.53v-.22h0l.06-.86c0-.11,0-.18.16-.19a2.32,2.32,0,0,1,.87.12.42.42,0,0,1,.18.17A1.07,1.07,0,0,1,100.33,172.93Z"/><path class="cls-7" d="M93.57,172.62c-.68,0-.67,0-.69.69,0,.14.16.4-.17.44s-.36,0-.33-.3a13.7,13.7,0,0,0,.07-1.81.32.32,0,0,1,.47-.31c.13.06,0,.15,0,.22-.08.75-.08.75.67.75h.06c.57,0,.56,0,.59-.59,0-.14-.13-.38.2-.39s.29.05.28.28c0,.65-.12,1.3-.08,2,0,.21-.1.2-.25.21s-.27,0-.25-.22,0-.41,0-.61,0-.35-.28-.31Z"/><path class="cls-7" d="M81.32,172.62c-.67,0-.67,0-.68.67a2.62,2.62,0,0,0,0,.28c0,.29-.22.16-.35.18s-.15-.11-.15-.22c0-.66.13-1.31.1-2,0-.23.11-.23.28-.24s.21.1.22.26-.17.54,0,.69.45,0,.69,0c.58,0,.58,0,.58-.61,0-.22,0-.41.3-.37.15,0,.2.08.18.2-.07.67,0,1.34-.07,2,0,.31-.22.21-.38.22s-.13-.16-.12-.27a4.4,4.4,0,0,1,0-.51c0-.25,0-.39-.32-.35Z"/><path class="cls-7" d="M101.39,172.6c0-.37.08-.72.08-1.08s.21-.18.35-.19.15.13.13.24a7.54,7.54,0,0,0-.08,1.34.48.48,0,0,0,.49.51c.47,0,.72-.1.76-.43s.09-.93.11-1.4c0-.2.06-.27.27-.27s.24.15.21.29a11.88,11.88,0,0,0-.09,1.33.82.82,0,0,1-.73.79,1.67,1.67,0,0,1-1.18-.13.66.66,0,0,1-.32-.56C101.38,172.89,101.39,172.75,101.39,172.6Z"/><path class="cls-11" d="M108.29,171.54c0-.1-.05-.2-.19-.22-.41,0-.52,0-.7.37-.07.14-.14.28-.22.42-.28.54-.56,1.08-.85,1.62.47.05.5.06.64-.32a.76.76,0,0,1,.93-.56c.29,0,.44.06.52.38.13.56.16.55.66.5Zm-.14.9c-.07.21-.26,0-.33.09-.41,0-.42,0-.24-.38a0,0,0,0,1,0,0c.09-.15.07-.38.29-.43A1.49,1.49,0,0,1,108.15,172.44Z"/><path class="cls-12" d="M87,171.6c-.05-.14-.07-.29-.28-.27s-.44-.07-.57.21c-.21.46-.45.91-.68,1.36a4.31,4.31,0,0,0-.42.83.43.43,0,0,0,.63-.34.67.67,0,0,1,.83-.54c.51,0,.51,0,.64.49s.11.44.63.39Q87.39,172.67,87,171.6Zm-.33.92s-.06,0-.09,0-.36.06-.44-.08.09-.25.16-.38a1.07,1.07,0,0,1,.28-.49c.09.27.16.5.25.72S86.85,172.53,86.68,172.52Z"/><path class="cls-11" d="M84,173.76a4.86,4.86,0,0,0-.54,0c-.29,0-.41-.08-.36-.37.1-.6,0-1.21.1-1.81,0-.18,0-.27.26-.26.43,0,.87,0,1.31,0,.07,0,.18,0,.18.1s-.06.18-.18.17c-.29,0-.59,0-.89,0s-.24.21-.24.38-.06.39.24.38h.67c.1,0,.19,0,.19.15s-.06.2-.2.18a3.47,3.47,0,0,0-.72,0c-.35,0-.2.28-.23.45s0,.31.25.29l.83,0c.15,0,.2.06.2.21s-.07.17-.2.17H84Z"/><path class="cls-10" d="M97.22,171.33c.2,0,.4,0,.6,0s.26-.07.26.13-.14.14-.24.14c-.26,0-.52,0-.77,0s-.26,0-.25.23a1.77,1.77,0,0,1,0,.32q0,.21.21.21h.67c.1,0,.19,0,.19.15s-.07.2-.2.18a2.89,2.89,0,0,0-.72,0c-.15,0-.22.06-.2.21s0,.22,0,.32.06.21.21.2h.83c.09,0,.2,0,.19.13s0,.23-.18.23h-1.4c-.15,0-.17-.07-.17-.2,0-.68.14-1.37.12-2.06,0-.12,0-.17.17-.16Z"/><path class="cls-12" d="M106.11,173.41c0,.25-.1.35-.38.35a1.61,1.61,0,0,1-1.31-.39,1.18,1.18,0,0,1-.22-1.25,1.12,1.12,0,0,1,.88-.78,1.83,1.83,0,0,1,.93,0c.17,0,.17.13.15.25s-.13.06-.21,0c-.9-.15-1.51.42-1.31,1.23a.75.75,0,0,0,.67.57h.8Z"/><path class="cls-12" d="M89.85,173.4c0,.29-.07.38-.34.36a10.28,10.28,0,0,0-1.11,0c-.17,0-.23-.05-.22-.21,0-.68.07-1.36.1-2,0-.25.21-.16.34-.17s.15.12.15.24c0,.51,0,1-.09,1.55,0,.23.06.3.28.29S89.56,173.4,89.85,173.4Z"/><path class="cls-11" d="M91.09,171.33h.8c.08,0,.18,0,.18.11s0,.22-.17.22h-.2c-.42,0-.42,0-.45.42s0,1,0,1.47c0,.23-.13.21-.29.22s-.18-.1-.18-.25a14.14,14.14,0,0,1,.1-1.59c0-.27-.08-.38-.35-.29a1.07,1.07,0,0,1-.25,0c-.08,0-.22.07-.2-.11s0-.23.2-.23S90.8,171.33,91.09,171.33Z"/><path class="cls-12" d="M110.1,172.67v-.83c0-.19,0-.28-.26-.21a1,1,0,0,1-.34,0c-.12,0-.17-.08-.16-.19s.06-.15.16-.15h1.72c.12,0,.18.06.16.18s-.07.16-.2.15c-.62,0-.62,0-.64.62,0,.41,0,.83,0,1.24,0,.21-.11.23-.28.24s-.2-.12-.19-.26,0-.56,0-.83Z"/><path class="cls-11" d="M112.23,171.72a10.53,10.53,0,0,0,0,1.77c0,.28-.14.27-.34.27s-.19-.13-.18-.29c0-.57,0-1.14.06-1.72,0-.18-.12-.43.27-.43S112.15,171.6,112.23,171.72Z"/></svg>